<svg version="1.1" id="Layer_1" xmlns="http://www.w3.org/2000/svg" xmlns:xlink="http://www.w3.org/1999/xlink" x="0px" y="0px"
	 width="100%" viewBox="0 0 180 180" enable-background="new 0 0 180 180" xml:space="preserve">
<path fill="#AD2118" opacity="1.000000" stroke="none" 
	d="
M127.000000,181.000000 
	C84.666672,181.000000 42.833340,181.000000 1.000006,181.000000 
	C1.000004,121.000008 1.000004,61.000011 1.000002,1.000014 
	C60.999989,1.000009 120.999977,1.000009 180.999969,1.000005 
	C180.999985,60.999985 180.999985,120.999969 181.000000,180.999969 
	C163.166672,181.000000 145.333328,181.000000 127.000000,181.000000 
M85.459595,146.647232 
	C86.950523,145.560120 88.952881,144.746063 89.735298,143.280670 
	C90.184814,142.438751 89.021767,140.135590 87.962112,139.182007 
	C78.494583,130.662003 78.253929,117.045296 88.318680,106.838493 
	C90.224602,112.765831 93.468712,118.271690 93.334641,123.694031 
	C93.193359,129.408340 93.922478,132.284271 101.337830,132.387848 
	C99.024025,135.092209 97.287987,136.737045 96.040871,138.693558 
	C94.929283,140.437469 94.358498,142.526123 93.549049,144.462631 
	C95.595619,145.108383 97.807625,146.622391 99.663780,146.268768 
	C124.731079,141.492828 136.748871,112.977852 121.578163,92.566078 
	C116.653862,85.940575 114.098640,79.907112 115.008804,72.061119 
	C115.046623,71.735123 114.998474,71.394829 114.959427,71.064857 
	C113.222496,56.385296 106.801270,44.433350 94.155296,36.387779 
	C92.599617,35.398037 89.955597,36.118938 87.815933,36.047115 
	C87.779427,38.022461 87.563438,40.014477 87.745026,41.969566 
	C88.087631,45.658466 89.725929,49.599800 88.870392,52.934582 
	C87.754967,57.282387 85.214798,61.506680 82.440903,65.137108 
	C76.488602,72.927452 69.661797,80.056252 63.812859,87.917099 
	C57.812443,95.981537 54.280483,105.286987 55.650173,115.492592 
	C57.937588,132.536179 68.628006,142.161209 85.459595,146.647232 
z"/>
<path fill="#120C0B" opacity="1.000000" stroke="none" 
	d="
M85.085007,146.580399 
	C68.628006,142.161209 57.937588,132.536179 55.650173,115.492592 
	C54.280483,105.286987 57.812443,95.981537 63.812859,87.917099 
	C69.661797,80.056252 76.488602,72.927452 82.440903,65.137108 
	C85.214798,61.506680 87.754967,57.282387 88.870392,52.934582 
	C89.725929,49.599800 88.087631,45.658466 87.745026,41.969566 
	C87.563438,40.014477 87.779427,38.022461 87.815933,36.047115 
	C89.955597,36.118938 92.599617,35.398037 94.155296,36.387779 
	C106.801270,44.433350 113.222496,56.385296 114.959427,71.064857 
	C114.998474,71.394829 115.046623,71.735123 115.008804,72.061119 
	C114.098640,79.907112 116.653862,85.940575 121.578163,92.566078 
	C136.748871,112.977852 124.731079,141.492828 99.663780,146.268768 
	C97.807625,146.622391 95.595619,145.108383 93.549042,144.462631 
	C94.358498,142.526123 94.929283,140.437469 96.040871,138.693558 
	C97.287987,136.737045 99.024025,135.092209 101.337830,132.387848 
	C93.922478,132.284271 93.193359,129.408340 93.334641,123.694031 
	C93.468712,118.271690 90.224602,112.765831 88.318680,106.838493 
	C78.253929,117.045296 78.494583,130.662003 87.962112,139.182007 
	C89.021767,140.135590 90.184814,142.438751 89.735298,143.280670 
	C88.952881,144.746063 86.950523,145.560120 85.085007,146.580399 
M92.898178,40.307358 
	C92.369385,40.237289 91.840599,40.167221 90.670967,40.012238 
	C91.568832,40.848572 91.976784,41.228561 92.541061,42.367222 
	C95.448334,49.799706 93.476151,56.634010 89.162651,62.660400 
	C84.429367,69.273277 78.705093,75.173958 73.924805,81.756889 
	C69.467194,87.895454 64.603134,94.089272 61.820438,101.022346 
	C55.608307,116.499832 62.402046,132.244553 77.335625,139.600342 
	C78.722473,140.283463 80.244888,140.691345 82.294296,141.443573 
	C73.673782,122.303749 77.565796,104.571800 90.561890,100.441208 
	C93.184036,108.783257 95.806366,117.125893 98.636261,126.128853 
	C100.154938,124.361526 101.978844,122.239006 103.884674,120.021141 
	C106.671822,123.562248 106.418800,127.762787 104.995811,131.683670 
	C103.672295,135.330475 101.417122,138.639145 99.759758,141.745026 
	C109.297256,141.304214 119.729462,132.115997 122.861717,120.726547 
	C126.073067,109.049492 122.163589,95.708382 113.992760,90.461128 
	C109.684952,101.015991 109.684952,101.015991 106.124504,101.823311 
	C110.015724,92.234756 111.952965,82.374016 110.906616,72.170212 
	C109.577515,59.208961 104.564117,48.165974 92.898178,40.307358 
z"/>
<path fill="#FAFAFA" opacity="1.000000" stroke="none" 
	d="
M93.140633,40.846733 
	C104.564117,48.165974 109.577515,59.208961 110.906616,72.170212 
	C111.952965,82.374016 110.015724,92.234756 106.124504,101.823311 
	C109.684952,101.015991 109.684952,101.015991 113.992760,90.461128 
	C122.163589,95.708382 126.073067,109.049492 122.861717,120.726547 
	C119.729462,132.115997 109.297256,141.304214 99.759758,141.745026 
	C101.417122,138.639145 103.672295,135.330475 104.995811,131.683670 
	C106.418800,127.762787 106.671822,123.562248 103.884674,120.021141 
	C101.978844,122.239006 100.154938,124.361526 98.636261,126.128853 
	C95.806366,117.125893 93.184036,108.783257 90.561890,100.441208 
	C77.565796,104.571800 73.673782,122.303749 82.294296,141.443573 
	C80.244888,140.691345 78.722473,140.283463 77.335625,139.600342 
	C62.402046,132.244553 55.608307,116.499832 61.820438,101.022346 
	C64.603134,94.089272 69.467194,87.895454 73.924805,81.756889 
	C78.705093,75.173958 84.429367,69.273277 89.162651,62.660400 
	C93.476151,56.634010 95.448334,49.799706 92.655212,41.800743 
	C92.893112,41.105091 93.016869,40.975910 93.140633,40.846733 
z"/>
<path fill="#FAFAFA" opacity="1.000000" stroke="none" 
	d="
M92.577042,41.421410 
	C91.976784,41.228561 91.568832,40.848572 90.670967,40.012238 
	C91.840599,40.167221 92.369385,40.237289 93.019409,40.577045 
	C93.016869,40.975910 92.893112,41.105091 92.577042,41.421410 
z"/>
</svg>