<svg version="1.1" id="Layer_1" xmlns="http://www.w3.org/2000/svg" xmlns:xlink="http://www.w3.org/1999/xlink" x="0px" y="0px"
	 width="100%" viewBox="0 0 180 180" enable-background="new 0 0 180 180" xml:space="preserve">
<path fill="#AD2118" opacity="1.000000" stroke="none" 
	d="
M116.000000,181.000000 
	C77.333336,181.000000 39.166672,181.000000 1.000005,181.000000 
	C1.000003,121.000008 1.000003,61.000011 1.000002,1.000013 
	C60.999989,1.000009 120.999977,1.000009 180.999969,1.000004 
	C180.999985,60.999985 180.999985,120.999969 181.000000,180.999969 
	C159.500000,181.000000 138.000000,181.000000 116.000000,181.000000 
M103.056656,141.053116 
	C103.056656,141.053116 103.177811,141.173019 103.262253,141.929626 
	C100.842690,145.348465 98.247017,148.660294 96.077545,152.231079 
	C94.986122,154.027435 93.681297,156.673325 94.282936,158.239975 
	C94.868446,159.764633 97.687042,160.618637 99.680527,161.334122 
	C100.628136,161.674225 101.948830,161.057510 103.080566,160.789902 
	C134.498947,153.360977 148.081482,116.827057 127.921776,91.621567 
	C122.272659,84.558533 120.215012,78.057556 120.993202,69.792145 
	C121.024254,69.462410 121.011169,69.124908 120.984154,68.793839 
	C119.377296,49.101688 111.434540,32.936848 94.401802,22.120388 
	C92.604179,20.978830 89.176125,20.800220 87.309540,21.752644 
	C84.595924,23.137260 84.957870,26.132153 86.522446,28.747921 
	C90.606758,35.576374 89.993217,42.514145 86.343819,49.178734 
	C84.039719,53.386524 81.313904,57.420685 78.353172,61.200554 
	C70.463394,71.273155 61.466129,80.593246 54.509754,91.256668 
	C42.249226,110.050819 43.705952,130.381653 57.314381,146.284393 
	C63.998646,154.095581 72.615112,159.121490 82.779518,160.889191 
	C84.695343,161.222366 87.777069,159.855835 88.862869,158.273300 
	C89.642151,157.137512 88.656693,153.601181 87.321220,152.394363 
	C77.562057,143.575378 74.970222,133.082977 80.382484,121.063499 
	C81.863007,117.775597 84.144028,114.848160 86.057693,111.755302 
	C89.932800,119.657745 94.819885,126.269371 94.064072,134.821945 
	C93.859184,137.140427 94.333130,140.679703 95.818382,141.665466 
	C97.353012,142.684036 100.497734,141.276703 103.056656,141.053116 
z"/>
<path fill="#0A0706" opacity="1.000000" stroke="none" 
	d="
M102.938110,140.930603 
	C100.497734,141.276703 97.353012,142.684036 95.818382,141.665466 
	C94.333130,140.679703 93.859184,137.140427 94.064072,134.821945 
	C94.819885,126.269371 89.932800,119.657745 86.057693,111.755302 
	C84.144028,114.848160 81.863007,117.775597 80.382484,121.063499 
	C74.970222,133.082977 77.562057,143.575378 87.321220,152.394363 
	C88.656693,153.601181 89.642151,157.137512 88.862869,158.273300 
	C87.777069,159.855835 84.695343,161.222366 82.779518,160.889191 
	C72.615112,159.121490 63.998646,154.095581 57.314381,146.284393 
	C43.705952,130.381653 42.249226,110.050819 54.509754,91.256668 
	C61.466129,80.593246 70.463394,71.273155 78.353172,61.200554 
	C81.313904,57.420685 84.039719,53.386524 86.343819,49.178734 
	C89.993217,42.514145 90.606758,35.576374 86.522446,28.747921 
	C84.957870,26.132153 84.595924,23.137260 87.309540,21.752644 
	C89.176125,20.800220 92.604179,20.978830 94.401802,22.120388 
	C111.434540,32.936848 119.377296,49.101688 120.984154,68.793839 
	C121.011169,69.124908 121.024254,69.462410 120.993202,69.792145 
	C120.215012,78.057556 122.272659,84.558533 127.921776,91.621567 
	C148.081482,116.827057 134.498947,153.360977 103.080566,160.789902 
	C101.948830,161.057510 100.628136,161.674225 99.680527,161.334122 
	C97.687042,160.618637 94.868446,159.764633 94.282936,158.239975 
	C93.681297,156.673325 94.986122,154.027435 96.077545,152.231079 
	C98.247017,148.660294 100.842690,145.348465 103.403198,141.469208 
	C103.499420,140.781525 103.454697,140.554276 103.409973,140.327026 
	C103.252678,140.528214 103.095390,140.729416 102.938110,140.930603 
M103.243073,155.606674 
	C119.736717,150.721252 129.651749,139.783813 131.846497,122.769585 
	C133.498077,109.966026 129.557236,98.705322 120.764496,90.470551 
	C117.074455,96.226830 113.587784,101.665871 109.797615,106.804886 
	C109.797615,106.804886 109.478539,106.521507 109.654106,105.788780 
	C111.001244,101.519859 112.633446,97.317390 113.646843,92.970665 
	C118.388161,72.633835 117.117867,53.264843 103.290382,36.371456 
	C100.271820,32.683594 96.352852,29.732735 92.848557,26.442450 
	C95.754578,41.128784 94.704689,47.595039 85.782516,59.668087 
	C80.948067,66.209831 75.053764,71.971527 70.260742,78.539848 
	C64.621086,86.268394 58.308952,93.924210 54.665379,102.608803 
	C45.646782,124.104950 56.238899,146.618622 77.850418,154.432953 
	C78.758163,154.761169 79.802727,154.710968 81.250679,154.897110 
	C67.529289,136.158844 72.127563,111.666328 90.501442,102.340500 
	C91.149689,105.328339 91.573097,108.415459 92.519295,111.333023 
	C93.538361,114.475235 95.144897,117.421555 96.320107,120.519737 
	C98.174721,125.409019 100.581612,130.263229 98.650856,136.111786 
	C98.696693,136.242432 98.742538,136.373062 98.788376,136.503708 
	C98.875481,136.465118 98.962593,136.426514 99.049698,136.387924 
	C98.802444,136.159058 98.555183,135.930206 98.734703,136.527023 
	C101.563210,133.671143 104.391708,130.815262 107.127304,128.053192 
	C111.582428,135.147736 109.689018,145.244308 101.147102,154.828796 
	C100.966522,155.145309 100.785934,155.461807 100.605354,155.778320 
	C101.233948,155.738098 101.862549,155.697876 103.243073,155.606674 
z"/>
<path fill="#FCFCFC" opacity="1.000000" stroke="none" 
	d="
M98.311707,135.708008 
	C100.581612,130.263229 98.174721,125.409019 96.320107,120.519737 
	C95.144897,117.421555 93.538361,114.475235 92.519295,111.333023 
	C91.573097,108.415459 91.149689,105.328339 90.501442,102.340500 
	C72.127563,111.666328 67.529289,136.158844 81.250679,154.897110 
	C79.802727,154.710968 78.758163,154.761169 77.850418,154.432953 
	C56.238899,146.618622 45.646782,124.104950 54.665379,102.608803 
	C58.308952,93.924210 64.621086,86.268394 70.260742,78.539848 
	C75.053764,71.971527 80.948067,66.209831 85.782516,59.668087 
	C94.704689,47.595039 95.754578,41.128784 92.848557,26.442450 
	C96.352852,29.732735 100.271820,32.683594 103.290382,36.371456 
	C117.117867,53.264843 118.388161,72.633835 113.646843,92.970665 
	C112.633446,97.317390 111.001244,101.519859 109.403542,106.371918 
	C109.200371,107.206383 109.247765,107.457710 109.295158,107.709038 
	C109.563805,107.507660 109.832451,107.306282 110.101105,107.104919 
	C113.587784,101.665871 117.074455,96.226830 120.764496,90.470551 
	C129.557236,98.705322 133.498077,109.966026 131.846497,122.769585 
	C129.651749,139.783813 119.736717,150.721252 102.671860,155.373322 
	C101.963409,154.973007 101.826172,154.806015 101.688934,154.639038 
	C109.689018,145.244308 111.582428,135.147736 107.127304,128.053192 
	C104.391708,130.815262 101.563210,133.671143 98.560699,136.129639 
	C98.386703,135.732239 98.311707,135.708008 98.311707,135.708008 
z"/>
<path fill="#FCFCFC" opacity="1.000000" stroke="none" 
	d="
M102.295898,155.398819 
	C101.862549,155.697876 101.233948,155.738098 100.605354,155.778320 
	C100.785934,155.461807 100.966522,155.145309 101.418015,154.733917 
	C101.826172,154.806015 101.963409,154.973007 102.295898,155.398819 
z"/>
<path fill="#FCFCFC" opacity="1.000000" stroke="none" 
	d="
M98.347321,135.716797 
	C98.555183,135.930206 98.802444,136.159058 99.049698,136.387924 
	C98.962593,136.426514 98.875481,136.465118 98.788376,136.503708 
	C98.742538,136.373062 98.696693,136.242432 98.481277,135.909897 
	C98.311707,135.708008 98.386703,135.732239 98.347321,135.716797 
z"/>
<path fill="#AD2118" opacity="1.000000" stroke="none" 
	d="
M102.997383,140.991852 
	C103.095390,140.729416 103.252678,140.528214 103.409973,140.327026 
	C103.454697,140.554276 103.499420,140.781525 103.360977,141.090897 
	C103.177811,141.173019 103.056656,141.053116 102.997383,140.991852 
z"/>
<path fill="#0A0706" opacity="1.000000" stroke="none" 
	d="
M109.949356,106.954895 
	C109.832451,107.306282 109.563805,107.507660 109.295158,107.709038 
	C109.247765,107.457710 109.200371,107.206383 109.315758,106.738281 
	C109.478539,106.521507 109.797615,106.804886 109.949356,106.954895 
z"/>
</svg>